<svg width="415" height="61" viewBox="0 0 415 61" fill="none" xmlns="http://www.w3.org/2000/svg">
<path d="M11.133 17.7992L5.59033 23.3418L18.3105 36.0608L23.8532 30.5182L11.133 17.7992Z" fill="#FB7452"/>
<path d="M18.3439 10.5891L12.7999 16.1328L18.3439 21.6765L23.8879 16.1328L18.3439 10.5891Z" fill="#DD1D94"/>
<path d="M11.096 32.1809L5.55194 37.7246L11.096 43.2683L16.64 37.7246L11.096 32.1809Z" fill="#FB7452"/>
<path d="M32.7276 10.5505L19.9709 23.3064L25.5174 28.8525L38.274 16.0967L32.7276 10.5505Z" fill="#DD1D94"/>
<path d="M25.4856 32.154L12.7289 44.9099L18.2717 50.4524L31.0284 37.6965L25.4856 32.154Z" fill="#E1517D"/>
<path d="M32.6907 24.9375L27.1479 30.48L39.8679 43.1992L45.4107 37.6567L32.6907 24.9375Z" fill="#5F3A9F"/>
<path d="M39.9044 17.7273L34.3604 23.271L39.9044 28.8147L45.4484 23.271L39.9044 17.7273Z" fill="#5F3A9F"/>
<path d="M32.6565 39.3191L27.1125 44.8628L32.6565 50.4065L38.2005 44.8628L32.6565 39.3191Z" fill="#E1517D"/>
<path d="M3.92021 34.4672C6.08528 34.4672 7.84042 32.7121 7.84042 30.5472C7.84042 28.3822 6.08528 26.6272 3.92021 26.6272C1.75514 26.6272 0 28.3822 0 30.5472C0 32.7121 1.75514 34.4672 3.92021 34.4672Z" fill="#FB7452"/>
<path d="M25.5517 12.84C27.7168 12.84 29.472 11.0849 29.472 8.91998C29.472 6.75504 27.7168 5 25.5517 5C23.3867 5 21.6315 6.75504 21.6315 8.91998C21.6315 11.0849 23.3867 12.84 25.5517 12.84Z" fill="#DD1D94"/>
<path d="M25.4454 55.9999C27.6104 55.9999 29.3656 54.2448 29.3656 52.0799C29.3656 49.9149 27.6104 48.1599 25.4454 48.1599C23.2803 48.1599 21.5251 49.9149 21.5251 52.0799C21.5251 54.2448 23.2803 55.9999 25.4454 55.9999Z" fill="#E1517D"/>
<path d="M47.0798 34.361C49.2448 34.361 51 32.6059 51 30.441C51 28.276 49.2448 26.521 47.0798 26.521C44.9147 26.521 43.1595 28.276 43.1595 30.441C43.1595 32.6059 44.9147 34.361 47.0798 34.361Z" fill="#5F3A9F"/>
<g opacity="0.88">
<path d="M76.8071 34.4247C76.2218 36.2331 75.1063 37.7916 73.6259 38.8686C72.1456 39.9456 70.3795 40.4837 68.5901 40.4029C66.1628 40.3539 63.8504 39.2893 62.15 37.4379C60.4496 35.5864 59.4969 33.096 59.4969 30.502C59.4969 27.9081 60.4496 25.4177 62.15 23.5662C63.8504 21.7148 66.1628 20.6502 68.5901 20.6012C69.7544 20.594 70.9083 20.8366 71.9832 21.3147C73.0581 21.7928 74.0322 22.4967 74.8477 23.3845C75.6633 24.2723 76.3037 25.3261 76.731 26.4833C77.1583 27.6405 77.3637 28.8776 77.3352 30.1212C77.3269 30.5716 77.2917 31.0209 77.2297 31.4664L77.1602 31.9953H63.8727C63.9981 33.2354 64.5508 34.3814 65.4234 35.2101C66.296 36.0388 67.4261 36.4909 68.5935 36.4785C69.3214 36.518 70.0458 36.3483 70.6915 35.9871C71.3372 35.6259 71.8805 35.0864 72.2648 34.4247H76.8071ZM72.9611 28.8202C72.8707 27.6484 72.3709 26.5558 71.561 25.7598C70.7512 24.9637 69.6905 24.5225 68.5901 24.5238C67.4492 24.5055 66.341 24.9314 65.4724 25.7219C64.6037 26.5125 64.034 27.6137 63.8695 28.8202H72.9611Z" fill="#5F3A9F"/>
<path d="M83.0968 31.8069C83.0968 34.0864 85.1942 35.9164 88.5173 35.9164C92.0137 35.9164 93.4129 34.4601 93.4129 32.5544C93.4129 31.0223 92.5384 29.79 89.3919 29.1906L85.1959 28.4431C80.9653 27.6956 79.0757 25.0811 79.0757 21.3454C79.0757 17.012 82.3972 13.5002 88.1672 13.5002C94.4604 13.5002 97.6072 17.2025 97.6072 22.0929H93.0613C93.0613 19.8522 91.3468 17.9835 88.1656 17.9835C84.9844 17.9835 83.6201 19.4414 83.6201 21.3454C83.6201 22.8404 84.3196 23.8488 86.9414 24.3425L90.7877 25.09C95.7179 26.0244 97.9553 28.228 97.9553 32.5632C97.9553 37.0464 94.8089 40.4084 88.5141 40.4084C82.2193 40.4084 78.548 36.7062 78.548 31.8157L83.0968 31.8069Z" fill="#5F3A9F"/>
<path d="M111.247 38.1678H111.072C110.721 38.6071 110.309 38.9853 109.849 39.2891C108.695 40.0519 107.359 40.4413 106.003 40.4103C101.947 40.4103 99.535 37.7659 99.535 34.619C99.535 30.8833 101.984 28.2723 106.877 28.2723H110.899V27.8985C110.939 27.4376 110.887 26.9728 110.745 26.5352C110.604 26.0975 110.377 25.6973 110.079 25.3612C109.781 25.0251 109.419 24.761 109.018 24.5865C108.616 24.4121 108.185 24.3313 107.752 24.3497C107.043 24.2871 106.336 24.4974 105.759 24.9425C105.182 25.3876 104.773 26.0383 104.605 26.7773H100.228C100.612 23.6392 102.99 20.6069 107.746 20.6069C112.291 20.6069 115.263 23.8208 115.263 27.8915V40.0331H111.59L111.247 38.1678ZM110.897 31.8211H107.225C104.952 31.8211 103.904 32.7556 103.904 34.2506C103.904 35.7456 104.919 36.6799 106.709 36.6799C107.26 36.7465 107.818 36.6828 108.344 36.4932C108.869 36.3035 109.349 35.9927 109.75 35.5827C110.15 35.1727 110.461 34.6735 110.661 34.1206C110.861 33.5678 110.944 32.9747 110.905 32.3835L110.897 31.8211Z" fill="#5F3A9F"/>
<path d="M118.239 20.9759H122.26L122.61 22.8447H122.784C123.079 22.4171 123.432 22.0391 123.832 21.7234C124.738 20.9911 125.843 20.5972 126.979 20.6022C128.329 20.5752 129.647 21.0361 130.721 21.9103C131.159 22.2896 131.547 22.7295 131.876 23.2184H132.051C132.417 22.7274 132.84 22.2879 133.31 21.9103C134.476 21.034 135.872 20.5759 137.297 20.6022C138.205 20.6349 139.097 20.8593 139.924 21.2627C140.75 21.6661 141.494 22.2403 142.112 22.9524C142.729 23.6644 143.209 24.5 143.522 25.4111C143.836 26.3221 143.978 27.2906 143.939 28.2605V40.0283H139.569V28.6325C139.569 26.2049 138.38 24.8967 136.598 24.8967C136.147 24.8958 135.7 24.9933 135.285 25.1831C134.87 25.373 134.496 25.6512 134.185 26.0008C133.874 26.3504 133.633 26.7642 133.477 27.2167C133.321 27.6691 133.253 28.1509 133.277 28.6325V40.0283H128.904V28.6325C128.904 26.2049 127.717 24.8967 125.935 24.8967C125.483 24.8956 125.036 24.9929 124.621 25.1826C124.206 25.3723 123.831 25.6505 123.52 26.0002C123.209 26.3499 122.968 26.7636 122.812 27.2162C122.656 27.6688 122.587 28.1508 122.611 28.6325V40.0283H118.241L118.239 20.9759Z" fill="#5F3A9F"/>
<path d="M146.911 20.9744H151.282V31.9964C151.282 33.0863 151.687 34.1316 152.408 34.9023C153.13 35.6729 154.108 36.1059 155.128 36.1059C156.148 36.1059 157.126 35.6729 157.848 34.9023C158.569 34.1316 158.974 33.0863 158.974 31.9964V20.9744H163.345V40.0285H159.324L158.974 38.1597H158.799C158.453 38.5901 158.054 38.9674 157.611 39.281C156.504 40.0305 155.216 40.42 153.905 40.4022C152.939 40.4131 151.981 40.2084 151.093 39.8011C150.205 39.3937 149.406 38.7928 148.748 38.0368C148.09 37.2808 147.587 36.3863 147.27 35.4105C146.954 34.4347 146.833 33.3992 146.913 32.3702L146.911 20.9744Z" fill="#5F3A9F"/>
<path d="M179.257 37.9746H179.082C178.732 38.4609 178.306 38.8784 177.823 39.2087C176.634 40.0202 175.247 40.4362 173.836 40.404C169.291 40.404 165.619 36.4814 165.619 30.5032C165.619 24.525 169.291 20.6024 173.836 20.6024C175.206 20.583 176.549 21.0138 177.682 21.8364C178.153 22.1545 178.568 22.5592 178.907 23.0317H179.082V13.8784H183.452V40.0302H179.603L179.257 37.9746ZM179.082 30.5032C179.082 26.9155 177.194 24.8987 174.536 24.8987C171.878 24.8987 169.99 26.9155 169.99 30.5032C169.99 34.0908 171.878 36.1076 174.536 36.1076C177.194 36.1076 179.082 34.089 179.082 30.5032Z" fill="#5F3A9F"/>
<path d="M197.608 38.1678H197.433C197.082 38.6072 196.669 38.9854 196.209 39.2891C195.055 40.0521 193.719 40.4415 192.362 40.4103C188.307 40.4103 185.894 37.7659 185.894 34.619C185.894 30.8833 188.341 28.2723 193.237 28.2723H197.258V27.8985C197.298 27.4376 197.246 26.9728 197.105 26.5352C196.964 26.0975 196.736 25.6973 196.438 25.3612C196.14 25.0251 195.778 24.761 195.377 24.5865C194.976 24.4121 194.544 24.3313 194.111 24.3497C193.402 24.2875 192.695 24.4979 192.119 24.943C191.542 25.388 191.133 26.0385 190.965 26.7773H186.594C186.978 23.6392 189.356 20.6069 194.111 20.6069C198.657 20.6069 201.629 23.8208 201.629 27.8915V40.0331H197.957L197.608 38.1678ZM197.258 31.8211H193.587C191.316 31.8211 190.265 32.7556 190.265 34.2506C190.265 35.7455 191.28 36.6799 193.07 36.6799C193.621 36.7463 194.179 36.6823 194.704 36.4926C195.23 36.3028 195.709 35.9919 196.109 35.5819C196.51 35.1719 196.821 34.6729 197.02 34.1201C197.22 33.5674 197.303 32.9745 197.264 32.3835L197.258 31.8211Z" fill="#5F3A9F"/>
<path d="M215.445 38.1678H215.27C214.919 38.6072 214.506 38.9854 214.046 39.2891C212.891 40.0521 211.555 40.4416 210.198 40.4103C206.143 40.4103 203.73 37.7659 203.73 34.619C203.73 30.8833 206.177 28.2723 211.072 28.2723H215.094V27.8985C215.134 27.4376 215.082 26.9728 214.941 26.5352C214.799 26.0975 214.572 25.6973 214.274 25.3612C213.976 25.0251 213.614 24.761 213.213 24.5865C212.812 24.4121 212.38 24.3313 211.947 24.3497C211.238 24.2871 210.531 24.4974 209.954 24.9425C209.377 25.3876 208.968 26.0383 208.8 26.7773H204.43C204.816 23.6392 207.192 20.6069 211.949 20.6069C216.494 20.6069 219.466 23.8208 219.466 27.8915V40.0331H215.788L215.445 38.1678ZM215.095 31.8211H211.424C209.152 31.8211 208.101 32.7556 208.101 34.2506C208.101 35.7455 209.116 36.6799 210.906 36.6799C211.457 36.7465 212.015 36.6828 212.541 36.4932C213.066 36.3035 213.546 35.9927 213.947 35.5827C214.347 35.1727 214.658 34.6735 214.858 34.1206C215.058 33.5678 215.141 32.9747 215.102 32.3835L215.095 31.8211Z" fill="#5F3A9F"/>
<path d="M221.563 43.2036H225.059C225.933 43.2036 226.214 42.8298 226.387 42.2692L226.702 41.3348L219.464 20.9744H224.009L228.555 33.8634H229.255L233.451 20.9744H237.997L230.479 43.7642C229.641 46.3787 228.521 47.4999 225.236 47.4999H221.564L221.563 43.2036Z" fill="#5F3A9F"/>
</g>
<path d="M395.357 55.7796C406.206 55.7796 415 47.8469 415 38.0615C415 28.2761 406.206 20.3435 395.357 20.3435C384.509 20.3435 375.715 28.2761 375.715 38.0615C375.715 47.8469 384.509 55.7796 395.357 55.7796Z" fill="#CC1139"/>
<path d="M333.643 55.7796C332.581 55.7798 331.521 55.7026 330.474 55.5487V20.5744C331.521 20.4205 332.581 20.3433 333.643 20.3435C337.547 20.3386 341.363 21.3914 344.601 23.3666C346.688 24.6457 348.485 26.2756 349.895 28.1678C352.082 31.0923 353.251 34.5433 353.251 38.0753C353.251 41.6073 352.082 45.0583 349.895 47.9828C348.484 49.8691 346.687 51.4932 344.601 52.7675C341.363 54.7427 337.547 55.7955 333.643 55.7906V55.7796Z" fill="#CC1139"/>
<path d="M311.169 55.7796C310.108 55.7796 309.048 55.7024 308 55.5487V20.5744C309.048 20.4206 310.108 20.3434 311.169 20.3435C313.739 20.3435 316.284 20.8018 318.658 21.6922C321.032 22.5826 323.19 23.8877 325.007 25.533C326.824 27.1783 328.266 29.1315 329.249 31.2811C330.233 33.4308 330.739 35.7348 330.739 38.0615C330.739 40.3883 330.233 42.6923 329.249 44.8419C328.266 46.9916 326.824 48.9448 325.007 50.5901C323.19 52.2353 321.032 53.5404 318.658 54.4309C316.284 55.3213 313.739 55.7796 311.169 55.7796Z" fill="#CC1139"/>
<path d="M372.69 55.7796C373.751 55.7798 374.811 55.7026 375.859 55.5487V20.5744C374.811 20.4205 373.751 20.3433 372.69 20.3435C368.786 20.3386 364.969 21.3914 361.732 23.3666C359.645 24.6465 357.848 26.2762 356.438 28.1678C355.727 29.1192 355.122 30.1318 354.632 31.1909C353.614 33.3731 353.09 35.7177 353.09 38.0863C353.09 40.4549 353.614 42.7994 354.632 44.9817C355.122 46.0407 355.727 47.0534 356.438 48.0048C358.566 50.8542 361.562 53.0834 365.062 54.4219C367.478 55.3338 370.072 55.7955 372.69 55.7796Z" fill="#CC1139"/>
<path d="M308.864 11.8917V4.24824H309.794L309.892 5.03555H309.969C310.166 4.72937 310.417 4.49974 310.723 4.34665C311.029 4.19356 311.372 4.11702 311.751 4.11702C312.225 4.11702 312.63 4.22272 312.965 4.43413C313.308 4.64554 313.57 4.97359 313.752 5.41827C313.935 5.86296 314.026 6.43886 314.026 7.14599C314.026 7.83124 313.931 8.39621 313.741 8.8409C313.559 9.2783 313.3 9.6027 312.965 9.81411C312.63 10.0255 312.243 10.1312 311.806 10.1312C311.551 10.1312 311.314 10.1021 311.095 10.0437C310.876 9.98542 310.68 9.8943 310.505 9.77037C310.337 9.64644 310.191 9.4897 310.067 9.30017H310.002V11.8917H308.864ZM311.412 9.14708C311.755 9.14708 312.032 9.08147 312.243 8.95025C312.455 8.81174 312.608 8.60033 312.703 8.31602C312.805 8.03172 312.856 7.67086 312.856 7.23347V7.03664C312.856 6.57737 312.805 6.20559 312.703 5.92128C312.6 5.63697 312.444 5.42921 312.232 5.29799C312.028 5.16677 311.762 5.10116 311.434 5.10116C311.099 5.10116 310.825 5.1777 310.614 5.33079C310.403 5.47659 310.246 5.69529 310.144 5.98689C310.049 6.27848 310.002 6.63205 310.002 7.04757V7.20066C310.002 7.54329 310.034 7.83853 310.1 8.08639C310.166 8.33425 310.26 8.53837 310.384 8.69875C310.508 8.85183 310.658 8.96483 310.833 9.03773C311.008 9.11063 311.201 9.14708 311.412 9.14708ZM317.646 10.1312C317.048 10.1312 316.542 10.0255 316.126 9.81411C315.718 9.59541 315.408 9.26372 315.197 8.81903C314.993 8.37434 314.891 7.80937 314.891 7.12412C314.891 6.43157 314.993 5.8666 315.197 5.42921C315.408 4.98452 315.718 4.65647 316.126 4.44506C316.542 4.22637 317.048 4.11702 317.646 4.11702C318.259 4.11702 318.769 4.22637 319.177 4.44506C319.585 4.65647 319.892 4.98452 320.096 5.42921C320.307 5.8666 320.413 6.43157 320.413 7.12412C320.413 7.80937 320.307 8.37434 320.096 8.81903C319.892 9.26372 319.585 9.59541 319.177 9.81411C318.769 10.0255 318.259 10.1312 317.646 10.1312ZM317.646 9.19082C318.011 9.19082 318.31 9.12156 318.543 8.98305C318.776 8.83725 318.947 8.61856 319.057 8.32696C319.173 8.03536 319.232 7.66722 319.232 7.22253V7.0257C319.232 6.58102 319.173 6.21288 319.057 5.92128C318.947 5.62968 318.776 5.41463 318.543 5.27612C318.31 5.13032 318.011 5.05742 317.646 5.05742C317.289 5.05742 316.994 5.13032 316.76 5.27612C316.527 5.41463 316.352 5.62968 316.236 5.92128C316.126 6.21288 316.072 6.58102 316.072 7.0257V7.22253C316.072 7.66722 316.126 8.03536 316.236 8.32696C316.352 8.61856 316.527 8.83725 316.76 8.98305C316.994 9.12156 317.289 9.19082 317.646 9.19082ZM322.622 10L320.894 4.24824H322.075L322.917 7.39749C322.961 7.55058 322.998 7.71096 323.027 7.87863C323.063 8.0463 323.096 8.19574 323.125 8.32696C323.154 8.45818 323.176 8.5493 323.191 8.60033H323.256C323.286 8.46911 323.318 8.31967 323.355 8.152C323.391 7.98433 323.424 7.83124 323.453 7.69273C323.482 7.54693 323.504 7.43759 323.519 7.36469L324.284 4.24824H325.509L326.296 7.37562C326.325 7.49226 326.355 7.62712 326.384 7.78021C326.42 7.92601 326.453 8.07181 326.482 8.21761C326.519 8.36341 326.544 8.49098 326.559 8.60033H326.624C326.646 8.49827 326.672 8.37799 326.701 8.23948C326.737 8.09368 326.774 7.94788 326.81 7.80208C326.847 7.65628 326.88 7.52142 326.909 7.39749L327.74 4.24824H328.822L327.106 10H325.925L325.225 7.13505C325.196 6.99654 325.159 6.83617 325.115 6.65392C325.072 6.47167 325.032 6.28942 324.995 6.10717C324.959 5.92492 324.929 5.76454 324.908 5.62604H324.842C324.827 5.70622 324.806 5.82286 324.776 5.97595C324.755 6.12904 324.722 6.304 324.678 6.50083C324.634 6.69766 324.583 6.90906 324.525 7.13505L323.803 10H322.622ZM332.007 10.1312C331.417 10.1312 330.921 10.0255 330.52 9.81411C330.127 9.59541 329.828 9.26372 329.624 8.81903C329.419 8.37434 329.317 7.80937 329.317 7.12412C329.317 6.43157 329.419 5.8666 329.624 5.42921C329.828 4.98452 330.13 4.65647 330.531 4.44506C330.932 4.22637 331.432 4.11702 332.029 4.11702C332.576 4.11702 333.032 4.22272 333.396 4.43413C333.768 4.63825 334.049 4.95172 334.238 5.37453C334.428 5.79735 334.522 6.32951 334.522 6.97103V7.40843H330.487C330.502 7.81666 330.564 8.15929 330.673 8.43631C330.783 8.70604 330.947 8.90651 331.165 9.03773C331.391 9.16166 331.676 9.22362 332.018 9.22362C332.23 9.22362 332.419 9.19811 332.587 9.14708C332.755 9.08876 332.897 9.00857 333.013 8.90651C333.13 8.79716 333.221 8.66959 333.287 8.52379C333.352 8.3707 333.385 8.19938 333.385 8.00985H334.501C334.501 8.35247 334.442 8.65501 334.326 8.91744C334.209 9.17988 334.038 9.40222 333.812 9.58447C333.593 9.75943 333.331 9.8943 333.024 9.98907C332.718 10.0838 332.379 10.1312 332.007 10.1312ZM330.509 6.57737H333.331C333.331 6.29306 333.298 6.05614 333.232 5.8666C333.174 5.66977 333.086 5.5094 332.97 5.38547C332.853 5.26154 332.715 5.17406 332.554 5.12303C332.394 5.06471 332.212 5.03555 332.007 5.03555C331.701 5.03555 331.439 5.09022 331.22 5.19957C331.009 5.30892 330.845 5.48024 330.728 5.71351C330.611 5.9395 330.538 6.22746 330.509 6.57737ZM335.678 10V4.24824H336.619L336.717 5.1777H336.783C336.848 4.99546 336.932 4.82414 337.034 4.66376C337.144 4.50338 337.282 4.37216 337.45 4.27011C337.625 4.16805 337.836 4.11702 338.084 4.11702C338.201 4.11702 338.303 4.12795 338.39 4.14982C338.485 4.17169 338.558 4.18992 338.609 4.2045V5.27612H338.226C337.993 5.27612 337.785 5.31257 337.603 5.38547C337.428 5.45837 337.279 5.56772 337.155 5.71351C337.038 5.85202 336.95 6.02334 336.892 6.22746C336.841 6.43157 336.816 6.66121 336.816 6.91635V10H335.678ZM339.459 3.25316V2.09406H340.596V3.25316H339.459ZM339.459 10V4.24824H340.596V10H339.459ZM342.064 10V4.24824H343.005L343.103 5.06835H343.18C343.318 4.85695 343.482 4.68199 343.672 4.54348C343.861 4.40497 344.069 4.29927 344.295 4.22637C344.528 4.15347 344.783 4.11702 345.06 4.11702C345.425 4.11702 345.746 4.18263 346.023 4.31385C346.3 4.43777 346.515 4.64189 346.668 4.9262C346.828 5.21051 346.908 5.59323 346.908 6.07437V10H345.771V6.24933C345.771 6.03063 345.742 5.84838 345.684 5.70258C345.633 5.55678 345.556 5.44014 345.454 5.35266C345.352 5.26518 345.232 5.20322 345.093 5.16677C344.955 5.13032 344.802 5.11209 344.634 5.11209C344.371 5.11209 344.131 5.1777 343.912 5.30892C343.701 5.43285 343.529 5.60781 343.398 5.8338C343.267 6.05979 343.201 6.32587 343.201 6.63205V10H342.064ZM349.295 11.9902C349.032 11.9902 348.785 11.9355 348.551 11.8261C348.325 11.7168 348.143 11.56 348.005 11.3559C347.866 11.1518 347.797 10.904 347.797 10.6124C347.797 10.2916 347.884 10.0328 348.059 9.83598C348.241 9.63186 348.453 9.47877 348.693 9.37671C348.518 9.29652 348.376 9.17988 348.267 9.02679C348.165 8.8737 348.114 8.69875 348.114 8.50192C348.114 8.23219 348.212 8.01349 348.409 7.84582C348.606 7.67815 348.836 7.5688 349.098 7.51777C348.843 7.35011 348.642 7.1387 348.497 6.88355C348.358 6.6284 348.289 6.34045 348.289 6.01969C348.289 5.63332 348.38 5.30163 348.562 5.02462C348.744 4.74031 349.014 4.51796 349.371 4.35759C349.736 4.19721 350.177 4.11702 350.695 4.11702C350.92 4.11702 351.132 4.13524 351.329 4.17169C351.533 4.20085 351.715 4.24459 351.875 4.30291C352.131 4.17169 352.313 4.01496 352.422 3.83271C352.532 3.64317 352.597 3.46821 352.619 3.30783H353.734C353.734 3.5484 353.683 3.7671 353.581 3.96393C353.487 4.15347 353.352 4.31385 353.177 4.44506C353.009 4.56899 352.805 4.65647 352.564 4.7075C352.747 4.87517 352.881 5.072 352.969 5.29799C353.064 5.51669 353.111 5.75725 353.111 6.01969C353.111 6.39877 353.024 6.73046 352.849 7.01477C352.674 7.29908 352.408 7.52142 352.05 7.6818C351.701 7.84218 351.267 7.92237 350.749 7.92237H349.853C349.678 7.92237 349.535 7.95882 349.426 8.03172C349.324 8.10462 349.273 8.21396 349.273 8.35976C349.273 8.48369 349.324 8.58575 349.426 8.66594C349.528 8.74613 349.663 8.78622 349.831 8.78622H352.258C352.681 8.78622 353.031 8.92838 353.308 9.21269C353.585 9.4897 353.723 9.84691 353.723 10.2843C353.723 10.6051 353.64 10.893 353.472 11.1482C353.312 11.4106 353.082 11.6147 352.783 11.7605C352.491 11.9136 352.152 11.9902 351.766 11.9902H349.295ZM349.667 11.1482H351.755C351.908 11.1482 352.047 11.119 352.171 11.0607C352.295 11.0024 352.393 10.9185 352.466 10.8092C352.539 10.7071 352.575 10.5905 352.575 10.4593C352.575 10.2406 352.506 10.0693 352.368 9.94533C352.236 9.8214 352.072 9.75943 351.875 9.75943H349.667C349.463 9.75943 349.291 9.82869 349.153 9.9672C349.014 10.0984 348.945 10.2624 348.945 10.4593C348.945 10.6634 349.011 10.8274 349.142 10.9513C349.28 11.0826 349.455 11.1482 349.667 11.1482ZM350.705 7.10225C351.136 7.10225 351.456 7.00748 351.668 6.81794C351.879 6.62111 351.985 6.35503 351.985 6.01969C351.985 5.67706 351.879 5.41463 351.668 5.23238C351.456 5.04284 351.136 4.94807 350.705 4.94807C350.275 4.94807 349.955 5.04284 349.743 5.23238C349.532 5.41463 349.426 5.67706 349.426 6.01969C349.426 6.23839 349.47 6.43157 349.557 6.59924C349.652 6.75962 349.794 6.88355 349.984 6.97103C350.181 7.05851 350.421 7.10225 350.705 7.10225Z" fill="black"/>
<path d="M274.5 0V61" stroke="black"/>
</svg>
